<svg width="151" height="99" viewBox="0 0 151 99" fill="none" xmlns="http://www.w3.org/2000/svg">
<path d="M32.0948 25.0073L74.9551 49.4851V74.2378L32.0948 49.7601V25.0073Z" fill="black"/>
<path d="M117.848 0.27771L74.955 24.7392V49.4755L117.848 25.014V0.27771Z" fill="black"/>
<path d="M117.771 0L118.025 74.4251L96.6001 86.7951L96.3461 12.3699L117.771 0Z" fill="black"/>
<path d="M74.9551 0.343018L117.848 24.8208V49.5735L74.9551 25.0958V0.343018Z" fill="#FFA4AA"/>
<path d="M32.0948 49.8021L74.9551 74.2636V99L32.0948 74.5385V49.8021Z" fill="#FFA4AA"/>
<path d="M32.2764 0.0327148L32.0224 74.4252L53.4478 86.7951L53.7017 12.4026L32.2764 0.0327148Z" fill="#FFA4AA"/>
<path d="M74.9551 0.343018L32.0948 24.8208V49.5735L74.9551 25.0958V0.343018Z" fill="black"/>
<path d="M117.848 49.8021L74.955 74.2636V99L117.848 74.5385V49.8021Z" fill="black"/>
</svg>
